<svg width="25" height="25" viewBox="0 0 25 25" fill="none" xmlns="http://www.w3.org/2000/svg">
<path fill-rule="evenodd" clip-rule="evenodd" d="M5.71558 12.7156H19.7156V20.2156C19.7156 21.044 19.044 21.7156 18.2156 21.7156H7.21558C6.38715 21.7156 5.71558 21.044 5.71558 20.2156V12.7156Z" stroke="black" stroke-width="1.5" stroke-linecap="round"/>
<path fill-rule="evenodd" clip-rule="evenodd" d="M12.7156 3.71559C14.9247 3.71559 16.7156 5.50645 16.7156 7.71559V12.7156H8.71558V7.71559C8.71558 5.50645 10.5064 3.71559 12.7156 3.71559Z" stroke="black" stroke-width="1.5" stroke-linecap="round"/>
<path fill-rule="evenodd" clip-rule="evenodd" d="M12.7156 14.7156C13.544 14.7156 14.2156 15.3872 14.2156 16.2156C14.2156 17.044 13.544 17.7156 12.7156 17.7156C11.8871 17.7156 11.2156 17.044 11.2156 16.2156C11.2156 15.3872 11.8871 14.7156 12.7156 14.7156Z" stroke="black" stroke-width="1.5" stroke-linecap="round"/>
<path d="M12.7156 17.7156V19.7156" stroke="black" stroke-width="1.5" stroke-linecap="round"/>
</svg>
