<svg width="25" height="25" viewBox="0 0 25 25" fill="none" xmlns="http://www.w3.org/2000/svg">
<path fill-rule="evenodd" clip-rule="evenodd" d="M5.71558 3.71559L10.994 3.71616C13.2032 3.71636 14.9939 4.50739 14.9937 6.71653C14.9937 6.93676 14.9754 7.15662 14.9392 7.37386L14.7156 8.71559L16.0586 8.49197C18.2378 8.12915 19.2984 9.60156 19.6613 11.7807C19.6974 11.9978 19.7156 12.2176 19.7156 12.4377V21.7156H5.71558V3.71559Z" stroke="black" stroke-width="1.5" stroke-linecap="round"/>
<path fill-rule="evenodd" clip-rule="evenodd" d="M14.9393 7.37617L14.7156 8.71559L16.055 8.49191C18.234 8.12803 19.2953 9.59944 19.6592 11.7784C19.6956 11.9961 19.7139 12.2165 19.7139 12.4373V12.7156C19.7139 7.28728 16.3879 3.86934 10.9954 3.72114L10.7156 3.7173H10.9939C13.203 3.7173 14.9939 4.50816 14.9939 6.7173C14.9939 6.93806 14.9756 7.15843 14.9393 7.37617Z" stroke="black" stroke-width="1.5" stroke-linecap="round"/>
<path d="M8.71558 7.71559H11.7156" stroke="black" stroke-width="1.5" stroke-linecap="round"/>
<path d="M8.71558 11.7156H16.7156" stroke="black" stroke-width="1.5" stroke-linecap="round"/>
<path d="M8.71558 14.7156H16.7156" stroke="black" stroke-width="1.5" stroke-linecap="round"/>
<path d="M8.71558 17.7156H16.7156" stroke="black" stroke-width="1.5" stroke-linecap="round"/>
</svg>
